{"title":"The Last House on the Left 1972 Unrated DVDRip Xvid LKRG","uid":10999330,"size":1132216118,"categoryP":"video","categoryS":"movies","magnet":"?xt=urn:btih:015a3bdf752edf03865e39f81c07f45f65ae3944&amp;dn=The+Last+House+on+the+Left+1972+Unrated+DVDRip+Xvid+LKRG&amp;tr=udp%3A%2F%2Ftracker.openbittorrent.com%3A80&amp;tr=udp%3A%2F%2Fopen.demonii.com%3A1337&amp;tr=udp%3A%2F%2Ftracker.coppersurfer.tk%3A6969&amp;tr=udp%3A%2F%2Fexodus.desync.com%3A6969","seeders":12,"leechers":2,"uploader":".BONE.","files":2,"time":1410117548,"description":"PLOT\n\nA pair of teenage girls are headed to a rock concert for one's birthday. While trying to score marijuana\nin the city, the girls are kidnapped by a gang of psychotic convicts.\n\nRuntime ..........: 1h 24mn\nFile Size ........: 1.05 GB\nResolution .......: 704 x 464 &lt;a href=&quot;\nhttp://www.imdb.com/title/tt0068833/&quot; rel=&quot;nofollow&quot; target=&quot;_NEW&quot;&gt;\nhttp://www.imdb.com/title/tt0068833/&lt;/a&gt;\nGenre ............: Horror\nLanguage .........: English\nSubtitles ........: None\nComplete name : The Last House on the Left 1972 Unrated DVDRip Xvid LKRGTLHotLeft_LKRG.avi\nFormat : AVI\nFormat/Info : Audio Video Interleave\nFile size : 1.05 GiB\nDuration : 1h 24mn\nOverall bit rate : 1 787 Kbps\nWriting application : VirtualDubMod 1.5.10.2 (build 2540/release)\nWriting library : VirtualDubMod build 2540/release\nVideo\nID : 0\nFormat : MPEG-4 Visual\nFormat profile : Advanced Simple@L5\nFormat settings, BVOP : 2\nFormat settings, QPel : No\nFormat settings, GMC : No warppoints\nFormat settings, Matrix : Default (H.263)\nMuxing mode : Packed bitstream\nCodec ID : XVID\nCodec ID/Hint : XviD\nDuration : 1h 24mn\nBit rate : 1 554 Kbps\nWidth : 704 pixels\nHeight : 464 pixels\nDisplay aspect ratio : 1.85:1\nFrame rate : 23.976 fps\nColor space : YUV\nChroma subsampling : 4:2:0\nBit depth : 8 bits\nScan type : Progressive\nCompression mode : Lossy\nBits/(Pixel*Frame) : 0.198\nStream size : 939 MiB (87%)\nWriting library : XviD 1.2.1 (UTC 2008-12-04)\nAudio\nID : 1\nFormat : AC-3\nFormat/Info : Audio Coding 3\nMode extension : CM (complete main)\nFormat settings, Endianness : Big\nCodec ID : 2000\nDuration : 1h 24mn\nBit rate mode : Constant\nBit rate : 224 Kbps\nChannel(s) : 2 channels\nChannel positions : Front: L R\nSampling rate : 48.0 KHz\nBit depth : 16 bits\nCompression mode : Lossy\nStream size : 135 MiB (13%)\nAlignment : Split accross interleaves\nInterleave, duration : 42 ms (1.00 video frame)\nInterleave, preload duration : 500 ms\n &lt;a href=&quot;\nhttp://i.imgur.com/EpPWEGP.jpg&quot; rel=&quot;nofollow&quot; target=&quot;_NEW&quot;&gt;\nhttp://i.imgur.com/EpPWEGP.jpg&lt;/a&gt; &lt;a href=&quot;\nhttp://i.imgur.com/FW9XWZ7.jpg&quot; rel=&quot;nofollow&quot; target=&quot;_NEW&quot;&gt;\nhttp://i.imgur.com/FW9XWZ7.jpg&lt;/a&gt; &lt;a href=&quot;\nhttp://i.imgur.com/6zH5WGs.jpg&quot; rel=&quot;nofollow&quot; target=&quot;_NEW&quot;&gt;\nhttp://i.imgur.com/6zH5WGs.jpg&lt;/a&gt; &lt;a href=&quot;\nhttp://i.imgur.com/82GNbCD.jpg&quot; rel=&quot;nofollow&quot; target=&quot;_NEW&quot;&gt;\nhttp://i.imgur.com/82GNbCD.jpg&lt;/a&gt; &lt;a href=&quot;\nhttp://i.imgur.com/G9rDDWH.jpg&quot; rel=&quot;nofollow&quot; target=&quot;_NEW&quot;&gt;\nhttp://i.imgur.com/G9rDDWH.jpg&lt;/a&gt; &lt;a href=&quot;\nhttp://i.imgur.com/yvm9xb7.jpg&quot; rel=&quot;nofollow&quot; target=&quot;_NEW&quot;&gt;\nhttp://i.imgur.com/yvm9xb7.jpg&lt;/a&gt;","torrent":{"xt":"urn:btih:015a3bdf752edf03865e39f81c07f45f65ae3944","amp;dn":"The+Last+House+on+the+Left+1972+Unrated+DVDRip+Xvid+LKRG","amp;tr":["udp%3A%2F%2Ftracker.openbittorrent.com%3A80","udp%3A%2F%2Fopen.demonii.com%3A1337","udp%3A%2F%2Ftracker.coppersurfer.tk%3A6969","udp%3A%2F%2Fexodus.desync.com%3A6969"],"infoHash":"015a3bdf752edf03865e39f81c07f45f65ae3944","infoHashBuffer":{"type":"Buffer","data":[1,90,59,223,117,46,223,3,134,94,57,248,28,7,244,95,101,174,57,68]},"announce":[],"urlList":[]}}